<svg width="1741" height="421" viewBox="0 0 1741 421" fill="none" xmlns="http://www.w3.org/2000/svg">
<path d="M408.415 28.817C288.934 -40.4391 158.499 40.4203 68.0214 48.7168L0 59.2689V442H1740.37V3.5C1682.02 57.9627 1505.28 96.0574 1376.55 48.7168C1215.63 -10.459 980.01 54.4773 843.853 97.9426C707.695 141.408 557.6 115.291 408.415 28.817Z" fill="url(#paint0_linear_27_12)" stroke="black" stroke-opacity="0.5"/>
<path d="M408.415 143.809C288.934 74.5528 158.499 155.412 68.0214 163.709L0 174.261V556.992H1740.37V118.492C1682.02 172.955 1505.28 211.049 1376.55 163.709C1215.63 104.533 980.01 169.469 843.853 212.935C707.695 256.4 557.6 230.283 408.415 143.809Z" fill="url(#paint1_linear_27_12)" stroke="black" stroke-opacity="0.5"/>
<defs>
<linearGradient id="paint0_linear_27_12" x1="1616" y1="103" x2="327" y2="56.4998" gradientUnits="userSpaceOnUse">
<stop stop-color="#E82861" stop-opacity="0.33"/>
<stop offset="1" stop-color="#8B797F" stop-opacity="0"/>
</linearGradient>
<linearGradient id="paint1_linear_27_12" x1="1683" y1="239" x2="146.5" y2="306" gradientUnits="userSpaceOnUse">
<stop stop-color="#CA3333" stop-opacity="0"/>
<stop offset="0.531616" stop-color="#61373B" stop-opacity="0.18"/>
<stop offset="1" stop-color="#8E3237" stop-opacity="0.1"/>
</linearGradient>
</defs>
</svg>
